<svg width="71px" height="26px" viewBox="0 0 71 26" version="1.1" xmlns="http://www.w3.org/2000/svg" xmlns:xlink="http://www.w3.org/1999/xlink">
  <g id="_15669097648">
      <path d="M40.2208122,12.0816413 L34.1607445,5.62013536 L34.1827411,10.6463621 L32.9619289,10.6518613 L32.928934,2.51861252 L38.9945008,8.99661591 L38.9945008,2.59560068 L40.2208122,1.39128596 L40.2208122,12.0816413 Z M38.9945008,1.22081218 L31.7026227,1.22081218 L30.5532995,0 L40.2208122,0 L38.9945008,1.22081218 Z M31.7026227,1.22081218 L31.6256345,11.4712352 L37.9551607,11.4712352 L39.1154822,12.6975465 L30.3993232,12.6975465 L30.5532995,0 L31.7026227,1.22081218 Z" id="Shape"></path>
      <g id="Group" transform="translate(0.000000, 20.880288)">
          <path d="M24.2347716,3.51395939 L24.0917936,3.51395939 L24.0917936,5.04822335 L22.9589679,5.04822335 L22.9589679,0.0494923858 L24.2347716,0.0494923858 L24.2347716,0.780879865 L24.0917936,0.780879865 L24.0917936,2.77707276 L24.2347716,2.77707276 L24.2347716,3.51395939 Z M26.1374788,3.23350254 L27.7817259,5.04822335 L26.4124365,5.04822335 L24.9166667,3.23350254 L26.1374788,3.23350254 Z" id="Shape"></path>
          <polygon id="Shape" points="46.6053299 5.03172589 42.4919628 2.11717428 42.4919628 5.02072758 41.3591371 5.02072758 41.3591371 0 45.4725042 2.9750423 45.4725042 0.841370558 46.6053299 0.0439932318"></polygon>
          <polygon id="Shape" points="0 5.08121827 0 0.0824873096 1.13282572 0.0824873096 3.81091371 0.0824873096 3.17301184 0.879864636 1.13282572 0.879864636 1.13282572 4.28384095 3.19500846 4.28384095 3.81091371 5.08121827 1.13282572 5.08121827"></polygon>
          <path d="M65.7423858,5.07571912 L65.7423858,0.0714890017 L70.7631134,0.0714890017 L70.7631134,5.07571912 L65.7423858,5.07571912 Z M69.5478003,0.874365482 L69.5478003,0.874365482 L66.8697124,0.874365482 L66.8697124,4.27284264 L66.9521997,4.27284264 L66.9521997,4.27284264 L69.6302876,4.27284264 L69.6302876,0.874365482 L69.5478003,0.874365482 Z" id="Shape"></path>
          <path d="M14.930203,5.08121827 L14.930203,0.0769881557 L19.9509306,0.0769881557 L19.9509306,5.08121827 L18.8236041,5.08121827 L18.8236041,3.66243655 L18.8236041,3.58544839 L16.0630288,3.58544839 L16.0630288,3.66243655 L16.0630288,5.08121827 L14.930203,5.08121827 Z M18.8236041,2.79906937 L18.8236041,0.879864636 L18.7411168,0.879864636 L18.7411168,0.879864636 L16.0630288,0.879864636 L16.0630288,2.79906937 L18.8236041,2.79906937 Z" id="Shape"></path>
          <path d="M30.8447547,5.09771574 L30.8447547,0.0934856176 L35.8709814,0.0934856176 L35.8709814,5.09771574 L34.7381557,5.09771574 L34.7381557,3.67893401 L34.7381557,3.5964467 L31.9775804,3.5964467 L31.9775804,3.67893401 L31.9775804,5.09771574 L30.8447547,5.09771574 Z M34.7381557,2.81556684 L34.7381557,0.890862944 L34.6556684,0.890862944 L34.6556684,0.890862944 L31.9775804,0.890862944 L31.9775804,2.81556684 L34.7381557,2.81556684 Z" id="Shape"></path>
          <path d="M49.6738579,5.08121827 L49.6738579,0.0769881557 L54.6945854,0.0769881557 L54.6945854,5.07571912 L53.5617597,5.07571912 L53.5617597,3.66243655 L53.5617597,3.57994924 L50.8066836,3.57994924 L50.8066836,3.66243655 L50.8066836,5.08121827 L49.6738579,5.08121827 Z M53.5617597,2.79357022 L53.5617597,0.874365482 L53.4847716,0.874365482 L53.4847716,0.874365482 L50.8066836,0.874365482 L50.8066836,2.79357022 L53.5617597,2.79357022 Z" id="Shape"></path>
          <polygon id="Shape" points="6.87394247 5.1142132 6.87394247 0.115482234 8.00676819 0.115482234 8.00676819 4.31683587 11.8891709 4.31683587 11.8891709 5.11971235"></polygon>
          <path d="M22.9589679,5.02072758 L22.9589679,0.0164974619 L27.7377327,0.0164974619 L27.7377327,3.51395939 L24.608714,3.51395939 L24.608714,3.5249577 L24.0917936,3.5249577 L24.0917936,3.60194585 L24.0917936,5.02072758 L22.9589679,5.02072758 Z M26.8523689,2.73857868 L26.8523689,0.819373942 L26.7698816,0.819373942 L26.7698816,0.819373942 L24.0917936,0.819373942 L24.0917936,2.73857868 L26.8523689,2.73857868 Z" id="Shape"></path>
          <polygon id="Shape" points="60.7876481 0.874365482 60.7876481 5.07571912 59.6548223 5.07571912 59.6548223 0.874365482 57.7081218 0.874365482 57.7081218 0.0714890017 62.7288494 0.0714890017 62.7288494 0.874365482"></polygon>
      </g>
  </g>
</svg>
